:SAMPLES-PER-SECOND 30
:FULLY-SPECIFIED
:DEGREES
256
root  -53.9496 25.7549 -7.59496 33.8633 44.8225 -3.781
RightUpLeg  -50.7212 -21.4002 -19.6966
RightLeg  64.3154 -4.24871 -7.61015
RightFoot  -25.6208 1.50933 7.00846
RightToes  -31.8331 -0.156745 -0.264502
Spine  25.9382 0.183218 -7.13371
Spine1  41.3251 1.43436 -6.32666
HEad  -12.8482 11.578 0.453725
LeftShoulder1  0 -2.42657e-020 -4.95415e-022
LeftArm  -79.952 -57.5386 -32.48
LeftForeArm  31.9033 -34.7309 -7.01482
LeftHand  0.478064 -12.3887 -4.77515
RightShoulder  0 2.42657e-020 1.07489e-018
RightArm  -35.6415 43.1477 87.3633
RightForeArm  34.2077 27.0125 5.14808
RightHand  -2.31549 21.6214 -11.716
LeftUpLeg  -92.0958 -3.51709 23.8364
LeftLeg  75.4135 -7.14678 -20.6702
LeftFoot  -12.5156 0.381646 3.47934
LeftToes  -37.7368 2.01279e-006 2.21547e-008
257
root  -55.371 24.8984 -5.89035 33.3203 48.2392 -2.05501
RightUpLeg  -49.6391 -19.0942 -28.0007
RightLeg  59.9773 -3.3485 -5.08938
RightFoot  -24.7813 1.29604 6.2721
RightToes  -41.6036 -0.231419 -0.324001
Spine  28.2626 -0.101303 -6.8891
Spine1  44.2503 -0.0331856 -4.44481
HEad  -13.202 9.49882 0.670767
LeftShoulder1  0 -2.42657e-020 -4.95415e-022
LeftArm  -79.9435 -67.1374 -29.605
LeftForeArm  37.4677 -27.7362 -5.30514
LeftHand  0.702352 -13.4984 -6.30277
RightShoulder  0 2.42657e-020 1.07489e-018
RightArm  -36.0403 51.3996 87.2933
RightForeArm  28.0265 25.3195 4.77959
RightHand  -1.56088 22.0077 -7.64675
LeftUpLeg  -91.4465 -2.56179 26.4384
LeftLeg  76.1322 -7.71067 -23.0093
LeftFoot  -13.3512 0.405738 3.46557
LeftToes  -45.2298 2.01279e-006 2.21547e-008
258
root  -56.9247 24.0586 -4.19785 34.0059 49.9721 0.141437
RightUpLeg  -52.2179 -14.286 -35.1567
RightLeg  59.171 -1.74309 -2.61568
RightFoot  -23.1383 1.00979 5.30759
RightToes  -46.4339 -0.271811 -0.348508
Spine  28.9091 0.328791 -7.00145
Spine1  44.8711 0.478945 -3.75895
HEad  -12.6012 7.2239 1.89066
LeftShoulder1  0 -2.42657e-020 -4.95415e-022
LeftArm  -69.5921 -74.453 -33.7979
LeftForeArm  43.7741 -21.2745 -3.91452
LeftHand  0.950174 -14.8519 -7.65391
RightShoulder  0 2.42657e-020 1.07489e-018
RightArm  -39.0376 57.117 87.3571
RightForeArm  23.3229 22.5697 4.19832
RightHand  -0.763227 22.363 -3.49069
LeftUpLeg  -90.4553 -1.65704 29.7976
LeftLeg  75.6893 -8.19574 -23.7177
LeftFoot  -14.3732 0.408355 3.2377
LeftToes  -52.4138 2.01279e-006 2.21547e-008
259
root  -58.537 23.2512 -2.45238 35.4855 52.5105 3.65183
RightUpLeg  -54.8552 -12.57 -39.3639
RightLeg  62.0476 1.78377 2.79283
RightFoot  -16.8402 0.498039 3.7413
RightToes  -68.3611 -0.474752 -0.413932
Spine  28.6921 0.863217 -6.15888
Spine1  44.3609 1.74339 -2.33732
HEad  -11.4465 3.39745 3.1508
LeftShoulder1  0 -2.42657e-020 -4.95415e-022
LeftArm  -36.8595 -77.9138 -61.5565
LeftForeArm  52.7513 -16.9609 -3.04742
LeftHand  1.048 -15.3837 -8.12139
RightShoulder  0 2.42657e-020 1.07489e-018
RightArm  -47.1339 59.7757 81.4791
RightForeArm  16.6205 20.1805 3.71113
RightHand  1.01544 22.8459 5.39403
LeftUpLeg  -88.9711 -1.3408 32.5775
LeftLeg  73.5969 -9.61787 -24.5741
LeftFoot  -14.3893 0.377056 2.98629
LeftToes  -58.6648 2.01279e-006 2.21547e-008
260
root  -60.214 22.596 -0.542248 34.1122 56.7835 5.16012
RightUpLeg  -54.814 -12.2535 -37.6761
RightLeg  70.3772 2.70628 6.08425
RightFoot  -25.5897 0.339558 1.87271
RightToes  -67.8869 -0.470149 -0.413355
Spine  28.9302 1.28067 -3.84335
Spine1  44.7551 3.24296 0.646072
HEad  -11.1181 -1.03171 3.55838
LeftShoulder1  0 -2.42657e-020 -4.95415e-022
LeftArm  -14.0463 -74.6816 -83.7989
LeftForeArm  53.9449 -18.3432 -3.31329
LeftHand  1.09949 -15.3626 -8.51227
RightShoulder  0 2.42657e-020 1.07489e-018
RightArm  -63.128 61.4031 71.861
RightForeArm  12.4981 19.2408 3.5224
RightHand  1.35648 23.1 7.00246
LeftUpLeg  -86.1578 -0.447168 35.2757
LeftLeg  70.2406 -12.9279 -27.3067
LeftFoot  -12.4239 0.281654 2.5872
LeftToes  -65.1722 2.01279e-006 2.21547e-008
261
root  -61.909 22.498 1.21159 35.6449 62.7748 8.52127
RightUpLeg  -54.6563 -15.3565 -33.209
RightLeg  77.8037 1.79392 5.97583
RightFoot  -30.5995 0.292452 1.4466
RightToes  -64.6959 -0.439315 -0.408486
Spine  28.3569 0.543778 -1.28271
Spine1  44.2752 3.10164 2.73006
HEad  -11.3242 -3.34751 4.28782
LeftShoulder1  0 -2.42657e-020 -4.95415e-022
LeftArm  -11.7407 -68.1829 -82.7909
LeftForeArm  49.6635 -24.1038 -4.4926
LeftHand  0.963292 -15.3597 -7.50779
RightShoulder  0 2.42657e-020 1.07489e-018
RightArm  -75.7336 60.3124 62.5728
RightForeArm  9.25173 20.6795 3.80772
RightHand  1.27327 22.7237 6.70215
LeftUpLeg  -84.571 -0.499352 36.1888
LeftLeg  64.1634 -17.143 -27.5115
LeftFoot  -6.76434 -0.00537852 -0.0910182
LeftToes  -68.3923 2.01279e-006 2.21547e-008
262
root  -63.4383 22.949 2.70301 41.7106 67.0794 16.3046
RightUpLeg  -54.3454 -16.7591 -30.6956
RightLeg  82.0041 0.917097 3.96759
RightFoot  -32.719 0.478556 2.00774
RightToes  -62.3076 -0.416441 -0.403722
Spine  27.6454 -0.485003 -0.509265
Spine1  43.6835 1.90328 2.91049
HEad  -11.3379 -3.87051 6.18721
LeftShoulder1  0 -2.42657e-020 -4.95415e-022
LeftArm  -16.3481 -61.5287 -75.5422
LeftForeArm  47.8258 -29.1535 -5.61608
LeftHand  0.669409 -14.8103 -5.51961
RightShoulder  0 2.42657e-020 1.07489e-018
RightArm  -83.253 56.6012 56.8715
RightForeArm  11.2193 22.7975 4.24267
RightHand  2.10817 22.8503 10.7772
LeftUpLeg  -82.7067 -1.15052 32.0678
LeftLeg  57.0357 -14.4766 -18.5831
LeftFoot  1.82978 0.0662596 -4.14743
LeftToes  -56.2031 2.01279e-006 2.21547e-008
263
root  -64.8608 23.7196 3.96389 46.8354 70.1967 22.3285
RightUpLeg  -54.6626 -16.1384 -27.2289
RightLeg  83.3865 0.219199 0.665297
RightFoot  -32.778 0.787278 3.05401
RightToes  -59.0512 -0.385611 -0.3957
Spine  26.6186 -1.35276 0.187775
Spine1  42.4844 -0.25956 4.00987
HEad  -11.6259 -4.07442 7.30489
LeftShoulder1  0 -2.42657e-020 -4.95415e-022
LeftArm  -21.0025 -55.3883 -71.6136
LeftForeArm  47.197 -30.9118 -6.03361
LeftHand  0.70461 -15.49 -5.54969
RightShoulder  0 2.42657e-020 1.07489e-018
RightArm  -88.8571 51.1524 54.0739
RightForeArm  2.36069 27.5249 5.25623
RightHand  3.32515 24.6404 15.5141
LeftUpLeg  -81.1067 -0.814073 26.6826
LeftLeg  54.4779 -10.8241 -12.9734
LeftFoot  6.20544 0.245632 -4.52914
LeftToes  -37.9486 2.01279e-006 2.21547e-008
264
root  -66.0745 24.7027 5.03547 48.1517 72.664 24.0561
RightUpLeg  -54.8582 -14.6341 -22.6874
RightLeg  82.1534 -0.419796 -2.52564
RightFoot  -31.3556 1.00127 3.94401
RightToes  -55.3187 -0.350902 -0.384368
Spine  25.9624 -1.73855 0.627356
Spine1  41.6468 -2.2502 5.42958
HEad  -12.2847 -3.97261 7.07314
LeftShoulder1  0 -2.42657e-020 -4.95415e-022
LeftArm  -23.74 -50.5353 -68.8673
LeftForeArm  44.8755 -31.5598 -6.19484
LeftHand  0.76511 -15.0055 -6.17729
RightShoulder  0 2.42657e-020 1.07489e-018
RightArm  -86.9669 46.6244 51.7891
RightForeArm  5.11845 34.6491 6.98927
RightHand  2.89575 23.6983 14.1124
LeftUpLeg  -79.1785 -0.523758 22.0658
LeftLeg  57.7022 -7.80612 -10.606
LeftFoot  6.09635 0.19066 -3.57926
LeftToes  -41.9373 2.01279e-006 2.21547e-008
